# xmcd
#
# Track frame offsets:
# 150
# 5920
# 23310
# 43182
# 57665
# 63237
# 81300
# 97932
# 117375
# 126242
# 147530
# 172020
# 189475
# 207695
# 224987
# 244137
#
# Disc length: 3539 seconds
#
# Revision: 1
# Processed by: cddbd v1.4PL0 Copyright (c) Steve Scherf et al.
# Submitted via: Easy CD Ripper 1.45
#
DISCID=fd0dd110
DTITLE=112 - Part III
DYEAR=2001
DGENRE=R&B
TTITLE0=Q, Mike,Slim, Daron(Interlude) 
TTITLE1=112 - Dance With Me
TTITLE2=112 - It's Over Now
TTITLE3=112 - Peaches and Cream
TTITLE4=112 - I Surrender (Interlude)
TTITLE5=112 - Missing You
TTITLE6=112 - All I Want Is You
TTITLE7=112 - Don't Hate Me Ft. Twista
TTITLE8=112 - Q, Mike  Slim, Daron (Interlud 
TTITLE9=112 - Player
TTITLE10=112 - Sweet Love
TTITLE11=112 - Smile
TTITLE12=112 - Caught Up
TTITLE13=112 - Do What You Gotta Do
TTITLE14=112 - I Think
TTITLE15=112 - Still In Love
EXTD=
EXTT0=
EXTT1=
EXTT2=
EXTT3=
EXTT4=
EXTT5=
EXTT6=
EXTT7=
EXTT8=
EXTT9=
EXTT10=
EXTT11=
EXTT12=
EXTT13=
EXTT14=
EXTT15=
PLAYORDER=
